#!OML:ASF E:\motion texture\Top Level 1\Subject 1\Session 1\male.ASF
:FULLY-SPECIFIED
:DEGREES
386
root 12.1202 18.2565 7.49956 26.3198 -68.0694 -22.3407
lowerback 4.38458 -1.33387 0.921547
upperback -5.93811 -2.07324 -3.23771
thorax -8.89048 -1.24666 -3.69584
lowerneck -3.45591 -15.6577 -20.07
upperneck -2.06211 -20.1145 9.71355
head 2.8109 -9.87442 4.73643
rclavicle 5.70512e-014 6.36111e-015
rhumerus 88.9295 -46.1995 -86.095
rradius 60.1203
rwrist -5.25747
rhand -8.99942 -16.2288
rfingers 7.12502
rthumb 16.947 -45.5095
lclavicle 5.70512e-014 6.36111e-015
lhumerus -36.8009 13.9603 64.5141
lradius 37.5154
lwrist -24.0369
lhand -11.79 14.844
lfingers 7.12502
lthumb 14.2593 44.3345
rfemur -17.7414 -16.0915 27.1834
rtibia 49.4514
rfoot -4.24477 -18.269
rtoes 5.77357
lfemur -11.9223 -10.3541 -8.79617
ltibia 19.5536
lfoot -8.41102 -8.02176
ltoes 0.430775
387
root 12.0407 18.2651 7.49245 25.8445 -67.6676 -21.9083
lowerback 4.4031 -1.23311 0.974195
upperback -5.8463 -1.93221 -3.29964
thorax -8.79485 -1.18003 -3.80873
lowerneck -3.43366 -15.7159 -20.1265
upperneck -2.11534 -20.1981 9.86742
head 2.82547 -9.91375 4.77951
rclavicle -7.41467e-014 -4.77083e-015
rhumerus 87.9791 -44.5569 -85.0971
rradius 59.4156
rwrist -4.61247
rhand -9.04476 -16.5053
rfingers 7.12502
rthumb 16.9034 -45.7897
lclavicle -7.41467e-014 -4.77083e-015
lhumerus -35.8372 13.4243 65.3188
lradius 37.5542
lwrist -23.9774
lhand -11.8873 14.8643
lfingers 7.12502
lthumb 14.1656 44.3613
rfemur -18.2323 -16.3097 27.1896
rtibia 48.7377
rfoot -4.95962 -18.5711
rtoes 5.62679
lfemur -11.6226 -10.3605 -8.73804
ltibia 19.4246
lfoot -8.37661 -8.28464
ltoes 0.300387
388
root 11.962 18.2735 7.48472 25.393 -67.2824 -21.4948
lowerback 4.41686 -1.1257 1.03388
upperback -5.75249 -1.78154 -3.3614
thorax -8.69323 -1.10883 -3.92643
lowerneck -3.42605 -15.7713 -20.1785
upperneck -2.17167 -20.2752 10.0205
head 2.84015 -9.9496 4.82157
rclavicle -6.95746e-015 -1.11319e-014
rhumerus 87.0552 -42.9155 -84.0712
rradius 58.5708
rwrist -3.88986
rhand -9.05249 -16.8178
rfingers 7.12502
rthumb 16.8959 -46.1029
lclavicle -6.95746e-015 -1.11319e-014
lhumerus -34.8945 12.8575 66.1157
lradius 37.6083
lwrist -23.9164
lhand -11.969 14.8707
lfingers 7.12502
lthumb 14.0868 44.3733
rfemur -18.7154 -16.5024 27.1805
rtibia 47.9745
rfoot -5.61873 -18.8531
rtoes 5.48861
lfemur -11.3313 -10.3675 -8.68262
ltibia 19.3003
lfoot -8.33583 -8.52304
ltoes 0.146706
389
root 11.8839 18.2819 7.47639 24.962 -66.9139 -21.0972
lowerback 4.42684 -1.01196 1.10054
upperback -5.65694 -1.62179 -3.42383
thorax -8.58645 -1.03336 -4.0497
lowerneck -3.43245 -15.8233 -20.2267
upperneck -2.23178 -20.3451 10.1743
head 2.85475 -9.98152 4.86331
rclavicle -3.24019e-014 3.18055e-015
rhumerus 86.1607 -41.2812 -83.0215
rradius 57.5869
rwrist -3.09386
rhand -9.01583 -17.1614
rfingers 7.12502
rthumb 16.9312 -46.4434
lclavicle -3.24019e-014 3.18055e-015
lhumerus -33.9776 12.2591 66.9
lradius 37.6802
lwrist -23.8532
lhand -12.0371 14.8662
lfingers 7.12502
lthumb 14.0213 44.3733
rfemur -19.1889 -16.6692 27.1552
rtibia 47.1643
rfoot -6.21967 -19.1144
rtoes 5.35663
lfemur -11.0472 -10.3761 -8.63066
ltibia 19.1808
lfoot -8.29008 -8.7375
ltoes -0.0305199
390
root 11.8063 18.2902 7.46751 24.5487 -66.5606 -20.7116
lowerback 4.43322 -0.892624 1.17199
upperback -5.56071 -1.45412 -3.48586
thorax -8.47567 -0.953986 -4.17593
lowerneck -3.45312 -15.8721 -20.2699
upperneck -2.29404 -20.408 10.3255
head 2.8693 -10.0098 4.90352
rclavicle 1.59028e-015 2.38542e-014
rhumerus 85.2965 -39.6579 -81.9491
rradius 56.4684
rwrist -2.23114
rhand -8.93242 -17.521
rfingers 7.12502
rthumb 17.0115 -46.7961
lclavicle 1.59028e-015 2.38542e-014
lhumerus -33.0907 11.6347 67.6694
lradius 37.7707
lwrist -23.7904
lhand -12.0882 14.8483
lfingers 7.12502
lthumb 13.972 44.3588
rfemur -19.6534 -16.811 27.1129
rtibia 46.3103
rfoot -6.76234 -19.3579
rtoes 5.23135
lfemur -10.7714 -10.3857 -8.58245
ltibia 19.0661
lfoot -8.23919 -8.93045
ltoes -0.230551
391
root 11.7291 18.2984 7.45807 24.1501 -66.2206 -20.3341
lowerback 4.43633 -0.766757 1.24689
upperback -5.4673 -1.27774 -3.54907
thorax -8.36475 -0.870422 -4.30616
lowerneck -3.47271 -15.9165 -20.3042
upperneck -2.36236 -20.4654 10.4722
head 2.8799 -10.0352 4.94252
rclavicle -4.85035e-014 0
rhumerus 84.453 -38.0557 -80.8505
rradius 55.222
rwrist -1.3058
rhand -8.79241 -17.8906
rfingers 7.12502
rthumb 17.1463 -47.1541
lclavicle -4.85035e-014 0
lhumerus -32.2418 10.9785 68.4202
lradius 37.8818
lwrist -23.7276
lhand -12.1223 14.8151
lfingers 7.12502
lthumb 13.9392 44.3279
rfemur -20.1087 -16.9286 27.0532
rtibia 45.4152
rfoot -7.24534 -19.5832
rtoes 5.12911
lfemur -10.5051 -10.3961 -8.53818
ltibia 18.9562
lfoot -8.18372 -9.10443
ltoes -0.448098
392
root 11.6523 18.3065 7.44805 23.7654 -65.8915 -19.9633
lowerback 4.43598 -0.636241 1.3254
upperback -5.37438 -1.09493 -3.61217
thorax -8.25111 -0.783619 -4.43872
lowerneck -3.50047 -15.9576 -20.3331
upperneck -2.43488 -20.5168 10.6165
head 2.88901 -10.0576 4.98053
rclavicle 1.51076e-014 2.22639e-014
rhumerus 83.6391 -36.4779 -79.733
rradius 53.8558
rwrist -0.321925
rhand -8.58975 -18.2561
rfingers 7.12502
rthumb 17.3413 -47.5025
lclavicle 1.51076e-014 2.22639e-014
lhumerus -31.4279 10.3049 69.1497
lradius 38.0119
lwrist -23.6706
lhand -12.1385 14.7624
lfingers 7.12502
lthumb 13.9236 44.2762
rfemur -20.5547 -17.023 26.9763
rtibia 44.4824
rfoot -7.6661 -19.7907
rtoes 5.04782
lfemur -10.2488 -10.4088 -8.49667
ltibia 18.8515
lfoot -8.12501 -9.26016
ltoes -0.684354
393
root 11.5756 18.3144 7.43753 23.3935 -65.5714 -19.5979
lowerback 4.43151 -0.502866 1.40721
upperback -5.27902 -0.907841 -3.67358
thorax -8.13125 -0.694398 -4.57141
lowerneck -3.55078 -15.997 -20.3603
upperneck -2.50795 -20.5615 10.7598
head 2.90023 -10.0761 5.01709
rclavicle 5.02925e-014 2.8625e-014
rhumerus 82.8628 -34.9255 -78.6033
rradius 52.38
rwrist 0.717774
rhand -8.32229 -18.5998
rfingers 7.12502
rthumb 17.5987 -47.8233
lclavicle 5.02925e-014 2.8625e-014
lhumerus -30.6489 9.61595 69.8589
lradius 38.166
lwrist -23.6121
lhand -12.1365 14.6993
lfingers 7.12502
lthumb 13.9254 44.213
rfemur -20.9904 -17.0953 26.8821
rtibia 43.5147
rfoot -8.0212 -19.9804
rtoes 4.99518
lfemur -10.0026 -10.4231 -8.45754
ltibia 18.7513
lfoot -8.06325 -9.4005
ltoes -0.937288
394
root 11.4991 18.3221 7.42647 23.029 -65.257 -19.2322
lowerback 4.42377 -0.366704 1.48773
upperback -5.1843 -0.717048 -3.73229
thorax -8.00892 -0.602837 -4.70046
lowerneck -3.61014 -16.0335 -20.3859
upperneck -2.58184 -20.6002 10.8982
head 2.91112 -10.0915 5.0522
rclavicle 3.15074e-014 7.95139e-015
rhumerus 82.1117 -33.405 -77.4525
rradius 50.8126
rwrist 1.80827
rhand -7.98379 -18.9122
rfingers 7.12502
rthumb 17.9244 -48.1061
lclavicle 3.15074e-014 7.95139e-015
lhumerus -29.911 8.91728 70.5467
lradius 38.3429
lwrist -23.557
lhand -12.1181 14.6198
lfingers 7.12502
lthumb 13.9432 44.1323
rfemur -21.4151 -17.148 26.7687
rtibia 42.5156
rfoot -8.31359 -20.1532
rtoes 4.95718
lfemur -9.76742 -10.4404 -8.42172
ltibia 18.6561
lfoot -7.99808 -9.52853
ltoes -1.19778
395
root 11.4226 18.3296 7.41492 22.6717 -64.9466 -18.8654
lowerback 4.41255 -0.227052 1.56732
upperback -5.09068 -0.521713 -3.7896
thorax -7.88447 -0.508614 -4.82752
lowerneck -3.67412 -16.0675 -20.4072
upperneck -2.66091 -20.6344 11.0328
head 2.91974 -10.1045 5.08619
rclavicle 3.57812e-015 8.26944e-014
rhumerus 81.3805 -31.9249 -76.2792
rradius 49.1707
rwrist 2.94286
rhand -7.57244 -19.1806
rfingers 7.12502
rthumb 18.3202 -48.3378
lclavicle 3.57812e-015 8.26944e-014
lhumerus -29.2144 8.20803 71.2118
lradius 38.5425
lwrist -23.5037
lhand -12.0828 14.5252
lfingers 7.12502
lthumb 13.9772 44.0353
rfemur -21.8285 -17.1814 26.6359
rtibia 41.4883
rfoot -8.54216 -20.3088
rtoes 4.93595
lfemur -9.54382 -10.4608 -8.38853
ltibia 18.5657
lfoot -7.93092 -9.64614
ltoes -1.46953
396
root 11.3461 18.3369 7.40287 22.3193 -64.637 -18.495
lowerback 4.39899 -0.0865113 1.6452
upperback -4.99831 -0.325338 -3.84457
thorax -7.75903 -0.413393 -4.95068
lowerneck -3.74613 -16.0981 -20.4261
upperneck -2.74268 -20.6624 11.1629
head 2.92719 -10.1143 5.11898
rclavicle -2.5842e-014 -2.54444e-014
rhumerus 80.6658 -30.4842 -75.0849
rradius 47.4777
rwrist 4.11419
rhand -7.08624 -19.3966
rfingers 7.12502
rthumb 18.7879 -48.5093
lclavicle -2.5842e-014 -2.54444e-014
lhumerus -28.5619 7.49729 71.8513
lradius 38.7652
lwrist -23.4516
lhand -12.0363 14.4254
lfingers 7.12502
lthumb 14.0221 43.9324
rfemur -22.2295 -17.1971 26.4827
rtibia 40.4359
rfoot -8.70459 -20.4496
rtoes 4.92871
lfemur -9.33235 -10.4854 -8.35776
ltibia 18.4803
lfoot -7.86216 -9.75548
ltoes -1.75093
397
root 11.2693 18.3438 7.3903 21.9704 -64.3245 -18.1196
lowerback 4.38408 0.0551663 1.72081
upperback -4.90835 -0.127723 -3.89767
thorax -7.63448 -0.317137 -5.07019
lowerneck -3.82071 -16.1258 -20.4398
upperneck -2.8263 -20.6857 11.285
head 2.93241 -10.1217 5.14942
rclavicle 3.01159e-014 -2.06736e-014
rhumerus 79.9571 -29.0903 -73.8622
rradius 45.7572
rwrist 5.30771
rhand -6.52791 -19.5463
rfingers 7.12502
rthumb 19.3248 -48.606
lclavicle 3.01159e-014 -2.06736e-014
lhumerus -27.9566 6.78206 72.4648
lradius 39.0123
lwrist -23.3969
lhand -11.9778 14.3126
lfingers 7.12502
lthumb 14.0784 43.8158
rfemur -22.6175 -17.1972 26.3091
rtibia 39.3625
rfoot -8.80228 -20.5766
rtoes 4.92998
lfemur -9.13431 -10.5148 -8.32799
ltibia 18.401
lfoot -7.79236 -9.86043
ltoes -2.03361
398
root 11.1924 18.3504 7.37727 21.6199 -64.0065 -17.7336
lowerback 4.36807 0.196284 1.79214
upperback -4.82027 0.0687333 -3.94861
thorax -7.51063 -0.220903 -5.1843
lowerneck -3.89785 -16.15 -20.4526
upperneck -2.91152 -20.7037 11.4023
head 2.93617 -10.1264 5.17903
rclavicle 1.31198e-014 6.36111e-014
rhumerus 79.2511 -27.7431 -72.6123
rradius 44.0367
rwrist 6.51204
rhand -5.89731 -19.6241
rfingers 7.12502
rthumb 19.9311 -48.622
lclavicle 1.31198e-014 6.36111e-014
lhumerus -27.3969 6.07303 73.052
lradius 39.2811
lwrist -23.3446
lhand -11.9082 14.1898
lfingers 7.12502
lthumb 14.1455 43.6882
rfemur -22.9913 -17.1832 26.1116
rtibia 38.2712
rfoot -8.83535 -20.6927
rtoes 4.93469
lfemur -8.95019 -10.551 -8.30157
ltibia 18.3282
lfoot -7.72229 -9.9628
ltoes -2.31705
399
root 11.1151 18.3565 7.36374 21.2715 -63.6806 -17.3417
lowerback 4.35129 0.337548 1.85896
upperback -4.73406 0.265079 -3.99622
thorax -7.38762 -0.124137 -5.29173
lowerneck -3.97592 -16.1713 -20.4619
upperneck -3.00107 -20.7171 11.5117
head 2.93684 -10.1288 5.20677
rclavicle 1.97791e-014 -1.27222e-014
rhumerus 78.5382 -26.4474 -71.3259
rradius 42.3448
rwrist 7.70813
rhand -5.20512 -19.6238
rfingers 7.12502
rthumb 20.5963 -48.5511
lclavicle 1.97791e-014 -1.27222e-014
lhumerus -26.8831 5.37048 73.6141
lradius 39.5713
lwrist -23.2935
lhand -11.8265 14.0615
lfingers 7.12502
lthumb 14.2242 43.5545
rfemur -23.3494 -17.1535 25.892
rtibia 37.1657
rfoot -8.80552 -20.8004
rtoes 4.93923
lfemur -8.77955 -10.5925 -8.2745
ltibia 18.2618
lfoot -7.65259 -10.0658
ltoes -2.59811
